<svg width="472.071" height="73.146" viewBox="0 0 472.071 73.146" xmlns="http://www.w3.org/2000/svg"><g id="svgGroup" stroke-linecap="round" fill-rule="evenodd" font-size="9pt" stroke="#000000" stroke-width="0" fill="#ffffff" style="stroke:#000000;stroke-width:0;fill:#ffffff"><path d="M 157.471 72.12 L 128.858 72.12 L 128.858 64.112 L 136.475 62.647 L 136.475 10.547 L 128.858 9.082 L 128.858 1.026 L 136.475 1.026 L 155.86 1.026 L 175.977 51.514 L 176.27 51.514 L 195.753 1.026 L 222.901 1.026 L 222.901 9.082 L 215.235 10.547 L 215.235 62.647 L 222.901 64.112 L 222.901 72.12 L 194.288 72.12 L 194.288 64.112 L 202.344 62.647 L 202.344 47.559 L 202.54 15.967 L 202.296 15.918 L 180.616 70.801 L 170.801 70.801 L 148.585 16.26 L 148.292 16.309 L 149.073 46.387 L 149.073 62.647 L 157.471 64.112 L 157.471 72.12 Z M 408.546 48.389 L 408.546 10.547 L 400.928 9.082 L 400.928 1.026 L 429.493 1.026 L 429.493 9.082 L 421.827 10.547 L 421.827 48.389 Q 421.827 52.373 423.038 55.263 A 12.118 12.118 0 0 0 423.609 56.446 Q 425.391 59.668 428.663 61.28 A 15.249 15.249 0 0 0 432.837 62.604 A 20.866 20.866 0 0 0 436.378 62.891 A 21.906 21.906 0 0 0 440.117 62.587 Q 442.371 62.197 444.239 61.304 A 11.23 11.23 0 0 0 449.341 56.495 A 13.357 13.357 0 0 0 450.65 52.983 Q 451.005 51.426 451.094 49.62 A 25.057 25.057 0 0 0 451.124 48.389 L 451.124 10.547 L 443.458 9.082 L 443.458 1.026 L 472.071 1.026 L 472.071 9.082 L 464.405 10.547 L 464.405 48.389 A 29.633 29.633 0 0 1 463.744 54.803 A 21.831 21.831 0 0 1 460.889 61.841 A 22.215 22.215 0 0 1 451.466 70.081 A 26.565 26.565 0 0 1 451.075 70.264 A 31.016 31.016 0 0 1 443.09 72.632 A 42.028 42.028 0 0 1 436.378 73.145 A 39.924 39.924 0 0 1 429.076 72.507 A 30.302 30.302 0 0 1 421.851 70.24 Q 415.577 67.334 412.061 61.792 Q 408.546 56.25 408.546 48.389 Z M 368.555 72.12 L 355.274 72.12 L 332.178 9.864 L 326.026 9.082 L 326.026 1.026 L 353.077 1.026 L 353.077 9.082 L 346.632 10.108 L 360.987 52.735 L 362.208 56.983 L 362.501 56.983 L 363.721 52.832 L 378.174 10.059 L 370.753 9.082 L 370.753 1.026 L 396.778 1.026 L 396.778 9.082 L 390.479 9.864 L 368.555 72.12 Z M 0.001 37.647 L 0.001 35.547 A 46.299 46.299 0 0 1 0.989 25.782 A 36.842 36.842 0 0 1 3.956 17.188 A 30.334 30.334 0 0 1 15.284 4.59 Q 22.657 0 32.862 0 A 43.823 43.823 0 0 1 42.27 0.981 A 38.465 38.465 0 0 1 46.241 2.076 A 33.017 33.017 0 0 1 56.881 7.906 A 31.775 31.775 0 0 1 57.178 8.155 L 57.178 24.952 L 47.169 24.952 L 45.801 14.063 A 18.279 18.279 0 0 0 42.261 12.061 A 19.665 19.665 0 0 0 39.176 11.036 A 22.879 22.879 0 0 0 38.062 10.791 A 23.995 23.995 0 0 0 35.081 10.414 A 29.281 29.281 0 0 0 33.155 10.352 A 21.023 21.023 0 0 0 27.777 11.011 A 16.612 16.612 0 0 0 22.462 13.453 A 18.756 18.756 0 0 0 16.83 19.753 A 23.726 23.726 0 0 0 15.65 22.168 A 28.824 28.824 0 0 0 13.838 28.504 Q 13.334 31.433 13.287 34.758 A 48.734 48.734 0 0 0 13.282 35.45 L 13.282 37.647 Q 13.282 45.069 15.558 50.573 A 24.749 24.749 0 0 0 15.772 51.075 A 21.61 21.61 0 0 0 18.905 56.221 A 18.169 18.169 0 0 0 22.877 59.79 A 18.262 18.262 0 0 0 30.384 62.594 A 23.947 23.947 0 0 0 33.887 62.842 Q 37.061 62.842 40.186 62.134 A 29.601 29.601 0 0 0 43.314 61.251 A 22.972 22.972 0 0 0 45.753 60.254 L 47.169 50.245 L 57.081 50.245 L 57.081 66.895 A 31.21 31.21 0 0 1 52.806 69.214 Q 50.641 70.191 48.111 70.999 A 54.067 54.067 0 0 1 46.924 71.363 A 43.717 43.717 0 0 1 38.473 72.934 A 54.011 54.011 0 0 1 33.643 73.145 A 41.84 41.84 0 0 1 25.056 72.304 A 31.29 31.29 0 0 1 15.65 68.75 A 29.385 29.385 0 0 1 4.053 56.372 A 36.575 36.575 0 0 1 0.67 45.92 A 49.027 49.027 0 0 1 0.001 37.647 Z M 281.739 72.12 L 228.712 72.12 L 228.712 64.112 L 236.378 62.647 L 236.378 10.547 L 228.712 9.082 L 228.712 1.026 L 236.378 1.026 L 249.659 1.026 L 258.106 1.026 L 258.106 9.082 L 249.659 10.547 L 249.659 61.963 L 270.801 61.963 L 271.583 51.368 L 281.739 51.368 L 281.739 72.12 Z M 92.921 72.12 L 64.307 72.12 L 64.307 64.112 L 71.973 62.647 L 71.973 10.547 L 64.307 9.082 L 64.307 1.026 L 71.973 1.026 L 97.901 1.026 Q 105.958 1.026 111.744 3.833 Q 117.53 6.641 120.655 11.695 A 20.898 20.898 0 0 1 123.608 20.392 A 26.39 26.39 0 0 1 123.78 23.438 A 24.5 24.5 0 0 1 123.023 29.651 A 19.851 19.851 0 0 1 120.655 35.181 A 20.468 20.468 0 0 1 113.149 42.239 A 25.09 25.09 0 0 1 111.744 42.969 A 27.024 27.024 0 0 1 104.955 45.141 Q 101.678 45.752 97.901 45.752 L 85.255 45.752 L 85.255 62.647 L 92.921 64.112 L 92.921 72.12 Z M 85.255 11.28 L 85.255 35.498 L 97.901 35.498 A 18.487 18.487 0 0 0 101.507 35.169 Q 103.609 34.751 105.225 33.8 A 9.451 9.451 0 0 0 107.325 32.129 A 11.535 11.535 0 0 0 110.387 25.43 A 15.631 15.631 0 0 0 110.499 23.536 A 14.411 14.411 0 0 0 109.891 19.262 A 11.762 11.762 0 0 0 107.325 14.771 A 10.078 10.078 0 0 0 102.627 11.901 Q 100.538 11.28 97.901 11.28 L 85.255 11.28 Z M 317.823 46.924 L 291.065 46.924 L 291.065 36.67 L 317.823 36.67 L 317.823 46.924 Z" vector-effect="non-scaling-stroke"/></g></svg>